<svg xmlns="http://www.w3.org/2000/svg" width="39" height="39" viewBox="0 0 39 39">
  <g transform="translate(0)"><path d="M14.194,8a3.252,3.252,0,1,0-3.252-3.252A3.261,3.261,0,0,0,14.194,8ZM8.1,13.531,3.626,36.455H7.04L9.885,23.448l3.5,3.252v9.755h3.252V24.18L13.3,20.847l.975-4.877A11.345,11.345,0,0,0,23.135,20.2V16.945a8.335,8.335,0,0,1-7.072-3.983l-1.545-2.6a3.171,3.171,0,0,0-2.764-1.545,3.262,3.262,0,0,0-1.219.244L2,12.555V20.2H5.252V14.75L8.1,13.531M19.884,2.313V13.694h6.1V36.455h2.439V13.694h6.1V2.313Zm8.145,9.755V9.223H22.323V6.784h5.707V3.939L32.077,8Z" transform="translate(1.737 0.939)"/>
  </g>
</svg>
