<svg xmlns="http://www.w3.org/2000/svg" viewBox="0 0 493.16 256.54"><defs><style>.cls-1{fill:#7976a3;}.cls-2{fill:#1e1d3c;}.cls-3{fill:#002057;}.cls-4{fill:#67678c;}.cls-5{fill:#4a4a75;}.cls-6{fill:#8686b2;}</style></defs><title>Asset 1</title><g id="Layer_2" data-name="Layer 2"><g id="Layer_1-2" data-name="Layer 1"><path class="cls-1" d="M215.67,256.54l-.11-11.07c2.4,0,4.82-.08,7.27-.16h.44c4-.08,8.33-.38,12.95-.9l1.23,11c-5,.56-9.66.88-14,1h-.3C220.66,256.46,218.15,256.51,215.67,256.54Zm-21.55-.48c-7.26-.41-14.49-1.07-21.49-2l1.42-11c6.73.87,13.7,1.51,20.69,1.9ZM259,251.81,256.56,241c6.69-1.48,13.39-3.33,19.92-5.48L280,246C273.07,248.3,266,250.24,259,251.81Zm-107.65-1.32c-7.13-1.5-14.19-3.3-21-5.34l3.19-10.6c6.49,1.95,13.24,3.67,20.07,5.11Zm148.93-12.31-4.5-10.11a199.41,199.41,0,0,0,18.38-9.35l5.52,9.6A211.44,211.44,0,0,1,300.24,238.18Zm-199.4-4.13c-6.77-2.74-4.38-1.92-10.69-5.25L95.3,219c6,3.15,3.27,2.18,9.7,4.78Zm-29.4-16.39A194.81,194.81,0,0,1,54,204.51l7.17-8.44a182.53,182.53,0,0,0,16.4,12.4Zm266.47-1.16-6.48-9a200.58,200.58,0,0,0,16-12.93l7.39,8.24A210.89,210.89,0,0,1,337.91,216.5ZM38.27,189.37a167.9,167.9,0,0,1-13.76-17L33.56,166a157,157,0,0,0,12.86,15.91Zm332-1.85-8.19-7.44c4.57-5,9-10.4,13.11-15.94l8.88,6.61C379.75,176.58,375.11,182.22,370.29,187.52Zm-357.11-34A132.61,132.61,0,0,1,4.88,133l10.57-3.26a122.06,122.06,0,0,0,7.62,18.76Zm383-.7L386.77,147c3.52-5.78,6.89-11.87,10-18.12l9.9,4.94C403.43,140.36,399.91,146.73,396.22,152.78ZM.43,111.16c-.29-3-.43-5.94-.43-8.82A81.22,81.22,0,0,1,1.15,88.57l10.91,1.88a69.54,69.54,0,0,0-1,11.89c0,2.53.13,5.15.38,7.77Zm118.44-4.27a40.86,40.86,0,0,0-5.73-17.6l9.61-5.49a51.45,51.45,0,0,1,7.16,22.4ZM101,74A84.89,84.89,0,0,0,85.15,62l5.63-9.53A96.37,96.37,0,0,1,108.66,66Zm-82.51-1.5L8.94,66.85A53.93,53.93,0,0,1,24.87,49.7l6.28,9.11A43.08,43.08,0,0,0,18.47,72.47Zm48.6-18.36a50.31,50.31,0,0,0-18.88-1.86l-1.2-11a61.6,61.6,0,0,1,23.06,2.21Z"/><path class="cls-1" d="M112.12,142.15c-4.24-4-7.69-7-11.28-12.23l9.14-6.24c.69,1,1.44,2,2.26,3a31.52,31.52,0,0,0,2.14-2.88l9.24,6.1C120,135.3,116.41,138.29,112.12,142.15Z"/><polygon class="cls-2" points="410.2 98.76 383.1 105.69 380.99 111.47 406.8 114.36 410.2 98.76"/><polygon class="cls-2" points="418.32 101.73 434.54 124.52 432.43 130.31 410.85 115.85 418.32 101.73"/><path class="cls-3" d="M368.13,68.64A2.44,2.44,0,0,1,365,70.1h0A2.45,2.45,0,0,1,363.55,67l4.58-12.5A2.43,2.43,0,0,1,371.26,53h0a2.43,2.43,0,0,1,1.45,3.13Z"/><path class="cls-3" d="M387.82,70.88a2.44,2.44,0,0,1-3.14,1.45h0a2.43,2.43,0,0,1-1.45-3.13l4.57-12.49a2.45,2.45,0,0,1,3.14-1.46h0a2.44,2.44,0,0,1,1.45,3.14Z"/><path class="cls-3" d="M407.5,73.11a2.45,2.45,0,0,1-3.14,1.46h0a2.45,2.45,0,0,1-1.45-3.14l4.57-12.49a2.45,2.45,0,0,1,3.14-1.46h0a2.44,2.44,0,0,1,1.45,3.14Z"/><path class="cls-3" d="M469.89,105.91a2.45,2.45,0,0,0,1.45,3.13h0a2.46,2.46,0,0,0,3.14-1.45l4.57-12.5A2.43,2.43,0,0,0,477.6,92h0a2.43,2.43,0,0,0-3.13,1.45Z"/><path class="cls-3" d="M453.42,94.9A2.46,2.46,0,0,0,454.87,98h0A2.45,2.45,0,0,0,458,96.58l4.57-12.49A2.44,2.44,0,0,0,461.13,81h0A2.44,2.44,0,0,0,458,82.41Z"/><path class="cls-3" d="M437,83.9A2.44,2.44,0,0,0,438.41,87h0a2.43,2.43,0,0,0,3.13-1.45l4.58-12.49A2.45,2.45,0,0,0,444.66,70h0a2.45,2.45,0,0,0-3.14,1.46Z"/><path class="cls-1" d="M387.57,35.54,384.83,43a4.82,4.82,0,0,0,.55,4.37l1.83,2.65,5.49-1.5,3.6-9.81Z"/><path class="cls-1" d="M406.9,33.6l-2.75,7.49a4.82,4.82,0,0,0,.55,4.37l1.82,2.65,5.5-1.5,3.6-9.82Z"/><path class="cls-4" d="M428.51,41.88l-10.22,27.9-11.88-4.35-59.22-5.74c3.48-6.11,4.79-10.12,9.86-10.63Z"/><path class="cls-1" d="M476.43,68.08l-2.74,7.49a4.82,4.82,0,0,1-3.25,3l-3.1.85-3.23-4.7,3.59-9.82Z"/><path class="cls-1" d="M462.93,54.12l-2.74,7.49a4.82,4.82,0,0,1-3.25,3l-3.1.85-3.23-4.7,3.6-9.81Z"/><path class="cls-1" d="M441.08,46.48,430.86,74.39l11.88,4.35,48.93,33.86c1.28-6.91,2.88-10.82-.66-14.49Z"/><path class="cls-5" d="M451,0,408,117.49c-3.23-3.6-1.15-12.66,5.49-34.25,3.64-11.82,8.64-27.39,14.89-47.87C435.78,11.87,441.44.17,451,0Z"/><path class="cls-6" d="M451,0,408,117.49c4.79-.66,9.05-8.92,17.93-29.7C430.73,76.42,437,61.3,445.42,41.63,454.91,18.88,458.14,6.28,451,0Z"/><path class="cls-3" d="M407.68,124.61a2.2,2.2,0,0,1-2.82,1.31h0a2.2,2.2,0,0,1-1.31-2.82l6.69-18.26a2.21,2.21,0,0,1,2.82-1.31h0a2.2,2.2,0,0,1,1.31,2.82Z"/></g></g></svg>